<svg width="44" height="42" viewBox="0 0 44 42" xmlns="http://www.w3.org/2000/svg">
  <defs>
    <linearGradient id="body" x1="6" y1="10" x2="36" y2="31" gradientUnits="userSpaceOnUse">
      <stop stop-color="#fff8ec"/>
      <stop offset=".48" stop-color="#ddf8ce"/>
      <stop offset="1" stop-color="#8eeaf0"/>
    </linearGradient>
    <linearGradient id="ear" x1="14" y1="8" x2="24" y2="17" gradientUnits="userSpaceOnUse">
      <stop stop-color="#ffe4ec"/>
      <stop offset="1" stop-color="#d8b4fe"/>
    </linearGradient>
  </defs>
  <circle cx="34.8" cy="16.4" r="2.42" fill="#ef6f7f" stroke="#26333a" stroke-width=".82"/>
  <path d="M37.75 12.1c2.18 1.72 2.18 6.36 0 8.08" fill="none" stroke="#22d3ee" stroke-width=".9" stroke-linecap="round" opacity=".82"/>
  <path d="M40.1 10.2c2.72 2.9 2.72 9.2 0 12.1" fill="none" stroke="#a3e635" stroke-width=".74" stroke-linecap="round" opacity=".6"/>
  <path d="M7.1 24.25c.38-8.24 7.08-13.92 15.55-12.92 6.62.78 11.05 4.88 10.18 9.66-.84 4.64-6.7 7.76-13.95 7.76H8.25c-.72 0-1.26-.58-1.2-1.3l.05-3.2Z" fill="url(#body)" stroke="#087889" stroke-width="1.18" stroke-linejoin="round"/>
  <path d="M8.52 24.08c.48-7.02 6.38-11.78 13.62-10.94 5.72.66 9.56 4 8.84 7.84-.7 3.72-5.66 6.22-11.92 6.22H8.95" fill="none" stroke="#e0fbff" stroke-width=".62" opacity=".78"/>
  <ellipse cx="17.65" cy="12.05" rx="4.12" ry="4.88" fill="url(#ear)" stroke="#7b7280" stroke-width=".78" transform="rotate(-25 17.65 12.05)"/>
  <path d="M15.95 12.18c1.24-.5 2.42-.36 3.38.36" fill="none" stroke="#bf8fa4" stroke-width=".52" stroke-linecap="round" opacity=".78"/>
  <path d="M27.9 15.2 18.8 13.1M28.35 17.02 18.6 16.8M27.78 18.95 18.78 20.62" stroke="#405057" stroke-width=".64" stroke-linecap="round"/>
  <path d="M7.95 24.32c-4.64.68-6.4 4.16-3.24 6.16 2.66 1.68 5.78-.24 3.82-2.38-.98-1.06-2.42-.68-2.96.28" fill="none" stroke="#f59e0b" stroke-width="1.45" stroke-linecap="round"/>
</svg>
